<svg width="86" height="86" viewBox="0 0 86 86" fill="none" xmlns="http://www.w3.org/2000/svg">
<path d="M83.7812 0.8125H75.3438C74.9708 0.8125 74.6131 0.960658 74.3494 1.22438C74.0857 1.4881 73.9375 1.84579 73.9375 2.21875V2.75594L70.9408 1.25687C70.3549 0.965142 69.7095 0.813043 69.055 0.8125H48.445C47.4879 0.813407 46.5596 1.1397 45.8125 1.73781L39.933 6.4375H16.2812C15.9083 6.4375 15.5506 6.58566 15.2869 6.84938C15.0232 7.1131 14.875 7.47079 14.875 7.84375V30.3438C14.875 30.7167 15.0232 31.0744 15.2869 31.3381C15.5506 31.6018 15.9083 31.75 16.2812 31.75H58.4688C58.8417 31.75 59.1994 31.6018 59.4631 31.3381C59.7268 31.0744 59.875 30.7167 59.875 30.3438V19.7237C61.6824 20.4369 63.6294 20.7256 65.5659 20.5677C67.5025 20.4097 69.377 19.8092 71.0448 18.8125L72.925 17.6875H73.9375V19.0938C73.9375 19.4667 74.0857 19.8244 74.3494 20.0881C74.6131 20.3518 74.9708 20.5 75.3438 20.5H83.7812C84.1542 20.5 84.5119 20.3518 84.7756 20.0881C85.0393 19.8244 85.1875 19.4667 85.1875 19.0938V2.21875C85.1875 1.84579 85.0393 1.4881 84.7756 1.22438C84.5119 0.960658 84.1542 0.8125 83.7812 0.8125ZM17.6875 28.9375V9.25H51.3377L49.7612 10.8278C48.9928 11.6235 48.5675 12.6891 48.5772 13.7953C48.5868 14.9014 49.0304 15.9595 49.8126 16.7417C50.5948 17.5239 51.6529 17.9676 52.7591 17.9772C53.8652 17.9868 54.9309 17.5616 55.7266 16.7931L57.0625 15.4572V28.9375H17.6875ZM72.5228 14.875C72.2704 14.8761 72.0231 14.9456 71.807 15.0761L69.5978 16.4008C68.2869 17.1838 66.8124 17.6525 65.2899 17.7701C63.7675 17.8877 62.2385 17.651 60.8228 17.0786L59.875 16.6933V12.6447L61.6609 10.8588L62.3866 11.1006C64.4082 11.77 66.5918 11.77 68.6134 11.1006L70.1603 10.5845C70.5146 10.4667 70.8076 10.2129 70.9748 9.87902C71.142 9.54515 71.1697 9.15853 71.0519 8.80422C70.934 8.44991 70.6802 8.15692 70.3464 7.98972C70.0125 7.82252 69.6259 7.7948 69.2716 7.91266L67.7247 8.43016C66.2811 8.90824 64.7218 8.90824 63.2781 8.43016L61.7313 7.91266C61.4835 7.83024 61.2177 7.81842 60.9636 7.87853C60.7095 7.93863 60.4772 8.06829 60.2927 8.25297L57.4802 11.0655L53.7381 14.8047C53.4744 15.0683 53.1168 15.2164 52.7439 15.2164C52.371 15.2164 52.0134 15.0683 51.7497 14.8047C51.4861 14.541 51.338 14.1834 51.338 13.8105C51.338 13.4376 51.4861 13.08 51.7497 12.8163L57.2144 7.35016C57.4705 7.08493 57.6123 6.72971 57.6091 6.361C57.6059 5.99228 57.458 5.63958 57.1972 5.37885C56.9365 5.11812 56.5838 4.97023 56.2151 4.96702C55.8464 4.96382 55.4912 5.10556 55.2259 5.36172L54.1502 6.4375H44.4358L47.5661 3.93297C47.8156 3.73347 48.1256 3.62485 48.445 3.625H69.055C69.273 3.62576 69.488 3.67626 69.6836 3.77266L73.9375 5.90031V14.8652L72.5228 14.875ZM82.375 17.6875H76.75V3.625H82.375V17.6875Z" fill="#007FFF"/>
<path d="M37.375 14.875C37.748 14.875 38.1056 15.0232 38.3694 15.2869C38.6331 15.5506 38.7812 15.9083 38.7812 16.2812H41.5938C41.5901 15.4118 41.318 14.5647 40.8146 13.8559C40.3111 13.147 39.601 12.6111 38.7812 12.3212V10.6562H35.9688V12.3212C35.0312 12.6515 34.2408 13.3028 33.7375 14.16C33.2342 15.0171 33.0506 16.0247 33.219 17.0043C33.3874 17.9839 33.8971 18.8723 34.6578 19.5121C35.4185 20.1519 36.381 20.5019 37.375 20.5C37.6531 20.5 37.925 20.5825 38.1563 20.737C38.3875 20.8915 38.5678 21.1111 38.6742 21.3681C38.7806 21.6251 38.8085 21.9078 38.7542 22.1806C38.7 22.4534 38.566 22.704 38.3694 22.9006C38.1727 23.0973 37.9221 23.2312 37.6493 23.2855C37.3766 23.3397 37.0938 23.3119 36.8369 23.2055C36.5799 23.099 36.3603 22.9188 36.2057 22.6875C36.0512 22.4563 35.9688 22.1844 35.9688 21.9062H33.1562C33.1599 22.7757 33.432 23.6228 33.9354 24.3316C34.4389 25.0405 35.149 25.5764 35.9688 25.8663V27.5312H38.7812V25.8663C39.7188 25.536 40.5092 24.8847 41.0125 24.0275C41.5157 23.1704 41.6994 22.1628 41.531 21.1832C41.3626 20.2036 40.8529 19.3152 40.0922 18.6754C39.3315 18.0356 38.369 17.6856 37.375 17.6875C37.002 17.6875 36.6444 17.5393 36.3806 17.2756C36.1169 17.0119 35.9688 16.6542 35.9688 16.2812C35.9688 15.9083 36.1169 15.5506 36.3806 15.2869C36.6444 15.0232 37.002 14.875 37.375 14.875Z" fill="#007FFF"/>
<path d="M28.9375 17.6875H26.125C25.752 17.6875 25.3944 17.8357 25.1306 18.0994C24.8669 18.3631 24.7188 18.7208 24.7188 19.0938C24.7188 19.4667 24.8669 19.8244 25.1306 20.0881C25.3944 20.3518 25.752 20.5 26.125 20.5H28.9375C29.3105 20.5 29.6681 20.3518 29.9319 20.0881C30.1956 19.8244 30.3438 19.4667 30.3438 19.0938C30.3438 18.7208 30.1956 18.3631 29.9319 18.0994C29.6681 17.8357 29.3105 17.6875 28.9375 17.6875Z" fill="#007FFF"/>
<path d="M48.625 17.6875H45.8125C45.4395 17.6875 45.0819 17.8357 44.8181 18.0994C44.5544 18.3631 44.4062 18.7208 44.4062 19.0938C44.4062 19.4667 44.5544 19.8244 44.8181 20.0881C45.0819 20.3518 45.4395 20.5 45.8125 20.5H48.625C48.998 20.5 49.3556 20.3518 49.6194 20.0881C49.8831 19.8244 50.0312 19.4667 50.0312 19.0938C50.0312 18.7208 49.8831 18.3631 49.6194 18.0994C49.3556 17.8357 48.998 17.6875 48.625 17.6875Z" fill="#007FFF"/>
<path d="M59.1128 67.9933C58.8375 67.5114 58.4695 67.0888 58.03 66.7499C57.5906 66.4109 57.0883 66.1624 56.5523 66.0186C56.0163 65.8748 55.4571 65.8385 54.907 65.9119C54.3568 65.9854 53.8267 66.167 53.3472 66.4464L44.3092 71.6495C44.1075 70.7058 43.5883 69.8597 42.8383 69.2524C42.0882 68.6451 41.1526 68.3134 40.1875 68.3125H29.3594L29.0781 68.1241C26.5636 66.4414 23.6098 65.5354 20.5843 65.5189C17.5588 65.5024 14.5952 66.3761 12.0625 68.0312V66.9063C12.0625 66.5333 11.9143 66.1756 11.6506 65.9119C11.3869 65.6482 11.0292 65.5 10.6562 65.5H2.21875C1.84579 65.5 1.4881 65.6482 1.22438 65.9119C0.960658 66.1756 0.8125 66.5333 0.8125 66.9063V83.7813C0.8125 84.1542 0.960658 84.5119 1.22438 84.7756C1.4881 85.0393 1.84579 85.1875 2.21875 85.1875H10.6562C11.0292 85.1875 11.3869 85.0393 11.6506 84.7756C11.9143 84.5119 12.0625 84.1542 12.0625 83.7813V83.59L13.3759 84.4619C14.071 84.9347 14.8922 85.1875 15.7328 85.1875H36.6156C37.3566 85.1936 38.0855 84.9993 38.725 84.625L57.5688 73.7547C58.2101 73.3816 58.7424 72.8469 59.1125 72.2038C59.4826 71.5608 59.6777 70.832 59.6781 70.09C59.6779 69.3535 59.4828 68.6301 59.1128 67.9933ZM9.25 82.375H3.625V68.3125H9.25V82.375ZM56.1625 71.3134L37.2977 82.1964C37.0909 82.3172 36.855 82.379 36.6156 82.375H15.7328C15.453 82.3756 15.1798 82.2907 14.9495 82.1317L12.0625 80.215V71.125C12.3397 71.1252 12.6107 71.0435 12.8416 70.8902L13.48 70.4683C15.5574 69.0779 18.0009 68.3356 20.5007 68.3356C23.0005 68.3356 25.444 69.0779 27.5214 70.4683L28.1584 70.8902C28.3893 71.0435 28.6603 71.1252 28.9375 71.125H40.1875C40.5605 71.125 40.9181 71.2732 41.1819 71.5369C41.4456 71.8006 41.5938 72.1583 41.5938 72.5313C41.5938 72.9042 41.4456 73.2619 41.1819 73.5256C40.9181 73.7893 40.5605 73.9375 40.1875 73.9375H31.75C31.377 73.9375 31.0194 74.0857 30.7556 74.3494C30.4919 74.6131 30.3438 74.9708 30.3438 75.3438C30.3438 75.7167 30.4919 76.0744 30.7556 76.3381C31.0194 76.6018 31.377 76.75 31.75 76.75H40.1875C41.2166 76.7466 42.2084 76.3641 42.9733 75.6756L54.7675 68.875C54.9241 68.7827 55.0976 68.7227 55.2778 68.6986C55.458 68.6744 55.6412 68.6866 55.8166 68.7344C55.9968 68.7821 56.1657 68.8654 56.3133 68.9794C56.4608 69.0934 56.5841 69.2358 56.6758 69.3981C56.799 69.6059 56.8645 69.8428 56.8656 70.0844C56.866 70.3328 56.8013 70.577 56.678 70.7927C56.5546 71.0083 56.3769 71.1879 56.1625 71.3134Z" fill="#007FFF"/>
<path d="M55.6562 37.375H19.0938C18.7208 37.375 18.3631 37.5232 18.0994 37.7869C17.8357 38.0506 17.6875 38.4083 17.6875 38.7812V64.0938C17.6875 64.4667 17.8357 64.8244 18.0994 65.0881C18.3631 65.3518 18.7208 65.5 19.0938 65.5H55.6562C56.0292 65.5 56.3869 65.3518 56.6506 65.0881C56.9143 64.8244 57.0625 64.4667 57.0625 64.0938V38.7812C57.0625 38.4083 56.9143 38.0506 56.6506 37.7869C56.3869 37.5232 56.0292 37.375 55.6562 37.375ZM38.7812 40.1875V45.8125H35.9688V40.1875H38.7812ZM54.25 62.6875H20.5V40.1875H33.1562V47.2188C33.1562 47.5917 33.3044 47.9494 33.5681 48.2131C33.8319 48.4768 34.1895 48.625 34.5625 48.625H40.1875C40.5605 48.625 40.9181 48.4768 41.1819 48.2131C41.4456 47.9494 41.5938 47.5917 41.5938 47.2188V40.1875H54.25V62.6875Z" fill="#007FFF"/>
<path d="M28.9375 54.25H23.3125C22.9395 54.25 22.5819 54.3982 22.3181 54.6619C22.0544 54.9256 21.9062 55.2833 21.9062 55.6562C21.9062 56.0292 22.0544 56.3869 22.3181 56.6506C22.5819 56.9143 22.9395 57.0625 23.3125 57.0625H28.9375C29.3105 57.0625 29.6681 56.9143 29.9319 56.6506C30.1956 56.3869 30.3438 56.0292 30.3438 55.6562C30.3438 55.2833 30.1956 54.9256 29.9319 54.6619C29.6681 54.3982 29.3105 54.25 28.9375 54.25Z" fill="#007FFF"/>
<path d="M34.5625 54.25H33.1562C32.7833 54.25 32.4256 54.3982 32.1619 54.6619C31.8982 54.9256 31.75 55.2833 31.75 55.6562C31.75 56.0292 31.8982 56.3869 32.1619 56.6506C32.4256 56.9143 32.7833 57.0625 33.1562 57.0625H34.5625C34.9355 57.0625 35.2931 56.9143 35.5569 56.6506C35.8206 56.3869 35.9688 56.0292 35.9688 55.6562C35.9688 55.2833 35.8206 54.9256 35.5569 54.6619C35.2931 54.3982 34.9355 54.25 34.5625 54.25Z" fill="#007FFF"/>
<path d="M28.9375 58.4688H23.3125C22.9395 58.4688 22.5819 58.6169 22.3181 58.8806C22.0544 59.1444 21.9062 59.502 21.9062 59.875C21.9062 60.248 22.0544 60.6056 22.3181 60.8694C22.5819 61.1331 22.9395 61.2812 23.3125 61.2812H28.9375C29.3105 61.2812 29.6681 61.1331 29.9319 60.8694C30.1956 60.6056 30.3438 60.248 30.3438 59.875C30.3438 59.502 30.1956 59.1444 29.9319 58.8806C29.6681 58.6169 29.3105 58.4688 28.9375 58.4688Z" fill="#007FFF"/>
<path d="M34.5625 58.4688H33.1562C32.7833 58.4688 32.4256 58.6169 32.1619 58.8806C31.8982 59.1444 31.75 59.502 31.75 59.875C31.75 60.248 31.8982 60.6056 32.1619 60.8694C32.4256 61.1331 32.7833 61.2812 33.1562 61.2812H34.5625C34.9355 61.2812 35.2931 61.1331 35.5569 60.8694C35.8206 60.6056 35.9688 60.248 35.9688 59.875C35.9688 59.502 35.8206 59.1444 35.5569 58.8806C35.2931 58.6169 34.9355 58.4688 34.5625 58.4688Z" fill="#007FFF"/>
</svg>
