<svg width="90" height="90" viewBox="0 0 90 90" fill="none" xmlns="http://www.w3.org/2000/svg">
<path d="M13.9337 31.0663H2.63672C1.18055 31.0663 0 32.2469 0 33.7031V61.9453C0 63.4015 1.18055 64.582 2.63672 64.582H13.9337C15.3898 64.582 16.5704 63.4015 16.5704 61.9453V33.7031C16.5704 32.2469 15.3898 31.0663 13.9337 31.0663Z" fill="#007FFF"/>
<path d="M63.3575 61.5704C64.8137 61.5704 65.9943 60.3899 65.9943 58.9337V53.0977H66.1816C67.6378 53.0977 68.8184 51.9172 68.8184 50.461C68.8184 49.0048 67.6378 47.8243 66.1816 47.8243H65.9943V33.5157C65.9943 32.4494 65.352 31.4879 64.3667 31.0797C63.3818 30.6716 62.2477 30.8969 61.4934 31.651C61.4932 31.651 53.261 39.8806 49.358 43.7808C47.6049 45.5434 46.5996 47.9783 46.5996 50.461C46.5996 51.9172 47.7802 53.0977 49.2363 53.0977H60.7208V58.9337C60.7208 60.3899 61.9012 61.5704 63.3575 61.5704ZM52.8056 47.8243C52.8952 47.7132 52.9905 47.6067 53.0912 47.5053C55.0661 45.5318 58.1548 42.4447 60.7206 39.8797V47.8243H52.8056Z" fill="#007FFF"/>
<path d="M41.9882 58.9337C41.9882 57.4775 40.8076 56.2969 39.3515 56.2969H28.7998C28.8893 56.1859 28.9846 56.0792 29.0853 55.9779C32.9829 52.0831 41.2156 43.853 41.2156 43.853C41.7103 43.3586 41.9883 42.6878 41.9883 41.9883V40.5763C41.9883 35.2292 37.6383 30.879 32.2912 30.879C26.8933 30.879 22.5939 35.2514 22.5939 40.5733V40.5761C22.5939 42.0323 23.7744 43.2114 25.2306 43.2114C26.6868 43.2114 27.8673 42.0295 27.8673 40.5733C27.8673 38.1544 29.815 36.1524 32.2912 36.1524C34.7305 36.1524 36.7149 38.137 36.7149 40.5763V40.8959C34.5769 43.0332 28.5298 49.078 25.3521 52.2536C23.599 54.0162 22.5939 56.4511 22.5939 58.9337C22.5939 60.3898 23.7744 61.5704 25.2306 61.5704H39.3516C40.8076 61.5704 41.9882 60.3898 41.9882 58.9337Z" fill="#007FFF"/>
<path d="M45 5.27344C58.2338 5.27344 69.3847 14.3627 72.538 26.6265C73.601 26.0942 74.7989 25.7929 76.0665 25.7929H77.7633C74.1946 11.013 60.8602 0 45 0C29.1398 0 15.8054 11.013 12.2368 25.7929H13.9336C15.2012 25.7929 16.399 26.0942 17.4621 26.6265C20.6153 14.3627 31.7661 5.27344 45 5.27344Z" fill="#007FFF"/>
<path d="M72.023 68.7405C69.3874 74.8167 63.3308 79.0782 56.2969 79.0782H52.8527C51.7486 75.799 48.6468 73.4298 45.0002 73.4298C40.4318 73.4298 36.7149 77.1465 36.7149 81.7149C36.7149 86.2833 40.4316 90 45 90C48.6466 90 51.7484 87.6308 52.8525 84.3516H56.2968C65.8682 84.3516 74.0558 78.3183 77.2597 69.8555H76.0663C74.5898 69.8555 73.2071 69.4476 72.023 68.7405Z" fill="#007FFF"/>
<path d="M87.3633 31.0663H76.0663C74.6102 31.0663 73.4296 32.2469 73.4296 33.7031V61.9453C73.4296 63.4015 74.6102 64.582 76.0663 64.582H87.3633C88.8195 64.582 90 63.4015 90 61.9453V33.7031C90 32.2469 88.8195 31.0663 87.3633 31.0663Z" fill="#007FFF"/>
</svg>
