<svg width="90" height="90" viewBox="0 0 90 90" fill="none" xmlns="http://www.w3.org/2000/svg">
<path d="M45 0C20.25 0 0 20.25 0 45C0 69.75 20.25 90 45 90C69.75 90 90 69.75 90 45C90 20.25 69.75 0 45 0ZM76.05 27H63C61.65 21.15 59.4 16.2 56.7 10.8C64.8 13.95 72 19.35 76.05 27ZM45 9C48.6 14.4 51.75 20.25 53.55 27H36.45C38.25 20.7 41.4 14.4 45 9ZM10.35 54C9.45 51.3 9 48.15 9 45C9 41.85 9.45 38.7 10.35 36H25.65C25.2 39.15 25.2 41.85 25.2 45C25.2 48.15 25.65 50.85 25.65 54H10.35ZM13.95 63H27C28.35 68.85 30.6 73.8 33.3 79.2C25.2 76.05 18 70.65 13.95 63ZM27 27H13.95C18.45 19.35 25.2 13.95 33.3 10.8C30.6 16.2 28.35 21.15 27 27ZM45 81C41.4 75.6 38.25 69.75 36.45 63H53.55C51.75 69.3 48.6 75.6 45 81ZM55.35 54H34.65C34.2 50.85 33.75 48.15 33.75 45C33.75 41.85 34.2 39.15 34.65 36H55.8C56.25 39.15 56.7 41.85 56.7 45C56.7 48.15 55.8 50.85 55.35 54ZM56.7 79.2C59.4 74.25 61.65 68.8502 63 63H76.05C72 70.65 64.8 76.05 56.7 79.2ZM64.8 54C65.25 50.85 65.25 48.15 65.25 45C65.25 41.85 64.8 39.15 64.8 36H80.1C81 38.7 81.4498 41.85 81.4498 45C81.4498 48.15 80.9998 51.3 80.1 54H64.8Z" fill="#007FFF"/>
</svg>
