<svg width="90" height="90" viewBox="0 0 90 90" fill="none" xmlns="http://www.w3.org/2000/svg">
<path d="M37.9688 80.1562H52.0312V82.9688H37.9688V80.1562Z" fill="#007FFF"/>
<path d="M54.8438 80.1562H57.6562V82.9688H54.8438V80.1562Z" fill="#007FFF"/>
<path d="M32.3438 80.1562H35.1562V82.9688H32.3438V80.1562Z" fill="#007FFF"/>
<path d="M31.8164 56.7422L32.8711 54.135C31.8333 53.7145 30.8827 53.1253 30.0445 52.3842L28.1798 54.4908C29.2584 55.4442 30.4819 56.2022 31.8164 56.7422Z" fill="#007FFF"/>
<path d="M28.8689 51.1523C27.4627 49.3959 26.7188 47.2781 26.7188 45.0295C26.7188 43.4109 27.1238 41.8008 27.8902 40.3762L28.0702 40.043L25.5952 38.7084L25.4138 39.0431C24.428 40.8755 23.9062 42.9469 23.9062 45.0295C23.9062 47.8828 24.8892 50.6841 26.6752 52.9102L28.8689 51.1523Z" fill="#007FFF"/>
<path d="M36.5625 49.2188C35.0114 49.2188 33.75 47.9573 33.75 46.4062H30.9375C30.9375 49.0205 32.7361 51.203 35.1562 51.8316V54.8438H37.9688V52.0312H42.1875V46.4062C42.1875 43.3041 39.6647 40.7812 36.5625 40.7812C35.0114 40.7812 33.75 39.5198 33.75 37.9688V35.1562H36.5625C38.1136 35.1562 39.375 36.4177 39.375 37.9688H42.1875C42.1875 35.3545 40.3889 33.172 37.9688 32.5434V29.5312H35.1562V32.3438H30.9375V37.9688C30.9375 41.0709 33.4603 43.5938 36.5625 43.5938C38.1136 43.5938 39.375 44.8552 39.375 46.4062V49.2188H36.5625Z" fill="#007FFF"/>
<path d="M88.5938 47.8125V16.875H66.0938V19.6875H60.937L57.9375 17.4375C56.2458 16.1677 54.1491 15.4688 52.0312 15.4688H46.89L51.1088 1.40625H47.8125C45.5358 1.40625 44.498 3.48187 43.74 4.99641C43.1437 6.1875 42.6825 7.03125 42.1819 7.03125C41.6813 7.03125 41.2214 6.1875 40.6266 4.99641C39.8686 3.48187 38.8294 1.40625 36.5527 1.40625C34.2773 1.40625 33.2409 3.48187 32.483 4.99781C31.8895 6.1875 31.4297 7.03125 30.9319 7.03125C30.4341 7.03125 29.9742 6.1875 29.3794 4.99641C28.6228 3.48187 27.5864 1.40625 25.3125 1.40625H22.0163L26.3545 15.8709C24.9145 16.5417 23.9062 17.9958 23.9062 19.6875C23.9062 20.1825 24.0075 20.6522 24.165 21.0938H11.25C7.37297 21.0938 4.21875 24.248 4.21875 28.125V74.5312H1.40625V81.5625C1.40625 85.4395 4.56047 88.5938 8.4375 88.5938H81.5625C85.4395 88.5938 88.5938 85.4395 88.5938 81.5625V74.5312H85.7812V47.8125H88.5938ZM68.9062 19.6875H71.7188V22.5H74.5312V19.6875H85.7812V45H74.5312V25.3125H71.7188V45H68.9062V19.6875ZM30.3708 23.9062H42.4941L42.57 24.2044C42.9427 25.6978 43.7836 26.9648 44.9016 27.8958L50.1848 37.7086C51.3928 39.9502 52.0312 42.4828 52.0312 45.0295C52.0312 53.5416 45.1041 60.4688 36.533 60.4688C28.0209 60.4688 21.0938 53.5416 21.0938 45.0295C21.0938 42.4828 21.7322 39.9516 22.9388 37.7086L30.3708 23.9062ZM20.4623 36.3755C19.035 39.0262 18.2812 42.0187 18.2812 45.0295C18.2812 55.0941 26.4684 63.2812 36.592 63.2812C45.2137 63.2812 52.4391 57.2667 54.3403 49.2188H55.568C58.1977 49.2188 60.6698 48.1936 62.5289 46.3345L63.8634 45H66.0938V47.8125H77.3438V68.9062H12.6562V29.5312H24.1481L20.4623 36.3755ZM26.865 6.25359C27.6216 7.76813 28.658 9.84375 30.9319 9.84375C33.2058 9.84375 34.2422 7.76813 35.0002 6.25359C35.595 5.0625 36.0548 4.21875 36.5527 4.21875C37.0519 4.21875 37.5145 5.0625 38.1094 6.255C38.8688 7.76953 39.9066 9.84375 42.1819 9.84375C44.4586 9.84375 45.4964 7.76813 46.2544 6.25359C46.6102 5.54203 46.9181 4.95563 47.2148 4.59703L43.9538 15.4688H29.1712L25.9116 4.60266C26.2055 4.96125 26.512 5.54625 26.865 6.25359ZM26.7188 19.6875C26.7188 18.9112 27.3487 18.2812 28.125 18.2812H52.0312C53.543 18.2812 55.042 18.7805 56.25 19.6875L60.0005 22.5H66.0938V42.1875H62.6991L60.5405 44.3461C59.2116 45.6736 57.4467 46.4062 55.568 46.4062H54.7734C54.8072 45.9506 54.8438 45.4936 54.8438 45.0295C54.8438 42.0187 54.09 39.0262 52.6627 36.3769L48.9572 29.4961C49.1034 29.5031 49.2441 29.5312 49.3917 29.5312H53.4375V26.7188H49.3917C47.4525 26.7188 45.7692 25.4039 45.2981 23.5238L44.692 21.0938H29.5312H28.125C27.3487 21.0938 26.7188 20.4638 26.7188 19.6875ZM85.7812 81.5625C85.7812 83.8884 83.8884 85.7812 81.5625 85.7812H8.4375C6.11156 85.7812 4.21875 83.8884 4.21875 81.5625V77.3438H85.7812V81.5625ZM82.9688 74.5312H7.03125V28.125C7.03125 25.7991 8.92406 23.9062 11.25 23.9062H27.1772L25.6627 26.7188H12.6562C11.1052 26.7188 9.84375 27.9802 9.84375 29.5312V68.9062C9.84375 70.4573 11.1052 71.7188 12.6562 71.7188H77.3438C78.8948 71.7188 80.1562 70.4573 80.1562 68.9062V47.8125H82.9688V74.5312Z" fill="#007FFF"/>
<path d="M74.5312 50.625H71.7188V63.2812H66.0938V66.0938H74.5312V50.625Z" fill="#007FFF"/>
<path d="M60.4688 63.2812H63.2812V66.0938H60.4688V63.2812Z" fill="#007FFF"/>
<path d="M53.9062 64.2188H56.7188V67.0312H53.9062V64.2188Z" fill="#007FFF"/>
<path d="M15.4688 63.2812H18.2812V66.0938H15.4688V63.2812Z" fill="#007FFF"/>
<path d="M15.4688 57.6562H18.2812V60.4688H15.4688V57.6562Z" fill="#007FFF"/>
<path d="M15.4688 52.0312H18.2812V54.8438H15.4688V52.0312Z" fill="#007FFF"/>
<path d="M80.1562 39.375H82.9688V42.1875H80.1562V39.375Z" fill="#007FFF"/>
<path d="M80.1562 33.75H82.9688V36.5625H80.1562V33.75Z" fill="#007FFF"/>
<path d="M80.1562 28.125H82.9688V30.9375H80.1562V28.125Z" fill="#007FFF"/>
</svg>
