<svg width="90" height="90" viewBox="0 0 90 90" fill="none" xmlns="http://www.w3.org/2000/svg">
<g clip-path="url(#clip0)">
<path d="M84.7059 44.5588V41.6596C84.7059 33.8751 78.3727 27.5419 70.5882 27.5419C62.8038 27.5419 56.4706 33.8751 56.4706 41.6596V44.5588H51.1765V63.0882C51.1765 73.7919 59.8846 82.5 70.5882 82.5C81.2919 82.5 90 73.7919 90 63.0882V44.5588H84.7059ZM61.7647 41.6596C61.7647 36.7943 65.7229 32.836 70.5882 32.836C75.4535 32.836 79.4118 36.7943 79.4118 41.6596V44.5588H61.7647V41.6596ZM68.7277 69.3828L61.6578 62.3128L65.4012 58.5693L68.9195 62.0876L75.8763 55.8265L79.4179 59.7616L68.7277 69.3828Z" fill="#007FFF"/>
<path d="M15.8824 28.6765H22.0588V33.9706H15.8824V28.6765Z" fill="#007FFF"/>
<path d="M45.8824 49.8529H42.3529V44.5588H45.8824V39.2647H51.1765H51.3242C52.5079 29.6869 60.6953 22.2478 70.5882 22.2478C71.7934 22.2478 72.9727 22.3592 74.1176 22.5704V14.5744C74.1176 10.6736 70.9442 7.5 67.0433 7.5H7.07435C3.17347 7.5 0 10.6735 0 14.5744V53.3668C0 57.2677 3.17347 60.4412 7.07435 60.4412H45.8824V49.8529ZM21.1765 49.8529H10.5882V44.5588H21.1765V49.8529ZM22.4728 39.2647H15.4684C12.7774 39.2647 10.5882 37.0756 10.5882 34.3846V28.2625C10.5882 25.5715 12.7774 23.3824 15.4684 23.3824H22.4728C25.1638 23.3824 27.3529 25.5715 27.3529 28.2625V34.3846C27.3529 37.0756 25.1638 39.2647 22.4728 39.2647ZM37.0588 49.8529H26.4706V44.5588H37.0588V49.8529Z" fill="#007FFF"/>
</g>
<defs>
<clipPath id="clip0">
<rect width="90" height="90" fill="white"/>
</clipPath>
</defs>
</svg>
