<svg width="90" height="90" viewBox="0 0 90 90" fill="none" xmlns="http://www.w3.org/2000/svg">
<path d="M71.353 47.0496V25.5185C71.3531 25.3332 71.3044 25.1512 71.2118 24.9908C71.1192 24.8303 70.986 24.6971 70.8256 24.6044L37.0828 5.12348C36.9225 5.03091 36.7406 4.98218 36.5555 4.98218C36.3703 4.98218 36.1885 5.03091 36.0281 5.12348L2.28516 24.6051C2.12472 24.6978 1.99152 24.831 1.89894 24.9915C1.80637 25.1519 1.75769 25.334 1.75781 25.5192V64.4815C1.75769 64.6667 1.80637 64.8487 1.89894 65.0092C1.99152 65.1697 2.12472 65.3029 2.28516 65.3955L36.0281 84.8765C36.1885 84.969 36.3703 85.0177 36.5555 85.0177C36.7406 85.0177 36.9225 84.969 37.0828 84.8765L55.1289 74.4574C56.7612 77.0635 59.0365 79.2057 61.7361 80.6782C64.4357 82.1507 67.4687 82.9039 70.5435 82.8654C73.6183 82.8268 76.6315 81.9978 79.2933 80.4581C81.9551 78.9184 84.176 76.7198 85.7425 74.0736C87.3089 71.4274 88.1682 68.4228 88.2377 65.3485C88.3073 62.2742 87.5847 59.2338 86.1395 56.5195C84.6942 53.8052 82.575 51.5084 79.9855 49.8499C77.396 48.1915 74.4234 47.2271 71.3535 47.0496H71.353ZM36.5555 43.7801L21.4629 35.0655L53.0937 16.8033L68.1866 25.5171L36.5555 43.7801ZM36.5555 7.25535L50.9841 15.5858L19.3535 33.8475L4.92416 25.5171L36.5555 7.25535ZM3.86719 27.3428L35.5008 45.6064V82.1361L3.86719 63.8726V27.3428ZM37.6102 82.1361V45.6063L69.2436 27.3426V47.0519C66.3171 47.2265 63.4782 48.1164 60.9757 49.6435C58.4731 51.1707 56.3835 53.2884 54.8899 55.8111C53.3964 58.3338 52.5445 61.1844 52.409 64.1129C52.2735 67.0415 52.8586 69.9585 54.1129 72.6084L37.6102 82.1361ZM70.3162 80.7618C67.1879 80.7618 64.1299 79.8342 61.5288 78.0963C58.9277 76.3583 56.9004 73.8881 55.7033 70.9979C54.5061 68.1078 54.1928 64.9276 54.8031 61.8594C55.4134 58.7912 56.9198 55.9729 59.1318 53.7609C61.3438 51.5489 64.1621 50.0424 67.2302 49.4321C70.2984 48.8218 73.4786 49.135 76.3688 50.3322C79.2589 51.5293 81.7292 53.5566 83.4672 56.1576C85.2052 58.7587 86.1328 61.8167 86.1328 64.945C86.1281 69.1384 84.4602 73.1587 81.495 76.1239C78.5298 79.0891 74.5096 80.757 70.3162 80.7618Z" fill="#007FFF"/>
<path d="M77.6048 54.3194C73.5857 50.491 67.0463 50.4907 63.0272 54.3194C61.3472 55.8949 60.2891 58.0214 60.0457 60.3117C59.8022 62.6019 60.3896 64.9034 61.7008 66.7969L69.4487 77.9959C69.5457 78.1362 69.6753 78.2508 69.8264 78.33C69.9775 78.4092 70.1455 78.4506 70.3161 78.4506C70.4867 78.4506 70.6547 78.4092 70.8058 78.33C70.9568 78.2508 71.0864 78.1362 71.1835 77.9959L78.9314 66.7969C80.2425 64.9034 80.8299 62.6019 80.5864 60.3116C80.3429 58.0214 79.2847 55.8949 77.6048 54.3194ZM77.1966 65.5968L70.3162 75.5422L63.4356 65.5968C62.4123 64.116 61.9551 62.3169 62.1472 60.5273C62.3393 58.7377 63.168 57.0766 64.4822 55.8467C66.0657 54.3698 68.1506 53.5484 70.316 53.5484C72.4814 53.5484 74.5663 54.3698 76.1498 55.8467C77.464 57.0766 78.2927 58.7377 78.4848 60.5273C78.6769 62.3169 78.2198 64.116 77.1966 65.5968Z" fill="#007FFF"/>
<path d="M70.3162 55.5945C69.1872 55.5944 68.0836 55.9291 67.1449 56.5563C66.2062 57.1834 65.4745 58.0749 65.0424 59.1179C64.6104 60.1609 64.4973 61.3085 64.7175 62.4158C64.9377 63.5231 65.4813 64.5402 66.2796 65.3385C67.0778 66.1368 68.0949 66.6804 69.2021 66.9007C70.3094 67.121 71.4571 67.008 72.5001 66.576C73.5431 66.1439 74.4346 65.4123 75.0618 64.4737C75.689 63.535 76.0238 62.4314 76.0238 61.3025C76.0221 59.7892 75.4203 58.3384 74.3502 57.2683C73.2802 56.1982 71.8294 55.5963 70.3162 55.5945ZM70.3162 64.9009C69.6044 64.9009 68.9086 64.6899 68.3168 64.2946C67.725 63.8992 67.2637 63.3372 66.9912 62.6796C66.7188 62.022 66.6475 61.2985 66.7863 60.6004C66.9252 59.9023 67.2679 59.261 67.7712 58.7577C68.2744 58.2544 68.9157 57.9117 69.6137 57.7728C70.3118 57.634 71.0354 57.7052 71.693 57.9776C72.3506 58.25 72.9126 58.7113 73.308 59.3031C73.7034 59.8949 73.9144 60.5907 73.9144 61.3025C73.9133 62.2564 73.5338 63.171 72.8593 63.8456C72.1847 64.5202 71.2702 64.8997 70.3162 64.9009Z" fill="#007FFF"/>
</svg>
